<?xml version="1.0" encoding="UTF-8"?>
<svg width="230px" height="37px" viewBox="0 0 230 37" version="1.1" xmlns="http://www.w3.org/2000/svg" xmlns:xlink="http://www.w3.org/1999/xlink">
    <title>logo</title>
    <g id="Recipes" stroke="none" stroke-width="1" fill="none" fill-rule="evenodd">
        <g id="Mobile" transform="translate(-20.000000, -14.000000)">
            <g id="logo" transform="translate(20.000000, 14.330000)">
                <g id="Group" transform="translate(0.000000, 0.000000)">
                    <g id="Passport/-Lockup/-White" transform="translate(0.000000, 0.000000)">
                        <path d="M40.4522985,18.2264338 L38.1139112,18.2264338 L38.1139112,12.7128464 L40.4522985,12.7128464 C42.2094944,12.7128464 42.8925522,14.0767121 42.8925522,15.4799844 C42.8925522,16.84385 42.2094944,18.2264338 40.4522985,18.2264338 Z M40.8033034,10.1322991 L35.253952,10.1322991 C35.1657072,10.1322991 35.0942428,10.2034335 35.0942428,10.2912706 L35.0942428,23.4546599 C35.0942428,24.286067 35.7713782,24.9602712 36.6068408,24.9602712 L38.1139112,24.9602712 L38.1139112,20.7576467 L40.9071439,20.7576467 C43.968467,20.7576467 45.9746039,18.3699304 45.9746039,15.4656058 C45.9746039,12.5424169 43.968467,10.1322991 40.8033034,10.1322991 Z M54.2387943,22.0071379 C53.5762677,22.4404145 52.6458482,22.7927103 51.7568859,22.7927103 C50.8454183,22.7927103 50.1848658,22.3387452 50.1848658,21.3874676 C50.1848658,20.541603 50.7642805,20.0669494 52.0457048,20.0669494 L54.2387943,20.0669494 L54.2387943,22.0071379 Z M52.6043909,13.4797266 C51.3989715,13.4797266 49.7276514,13.6357771 48.3238293,13.9275836 C48.2497985,13.9429523 48.1974834,14.0083674 48.1974834,14.0838312 L48.1974834,16.1938626 C48.1974834,16.2953348 48.2906635,16.3709956 48.3901609,16.3499131 C48.9883301,16.2222354 50.8353501,15.849054 51.8796784,15.8756535 C53.679516,15.9217593 54.2387943,16.4935505 54.2387943,17.403451 L54.2387943,18.145479 L51.5701308,18.145479 C48.7976267,18.145479 47.2461378,19.4886561 47.2461378,21.6152383 C47.2461378,24.0093919 48.8183553,25.2075524 50.7850091,25.2075524 C51.9418643,25.2075524 53.1630769,24.7327018 54.3840922,23.8663457 L54.4672041,23.8663457 C54.5860483,24.5468992 55.1780975,25.0436206 55.8702365,25.0436206 L57.0176157,25.0436206 C57.1058605,25.0436206 57.1773249,24.9722945 57.1773249,24.8842205 L57.1773249,17.5880713 C57.1773249,14.8416219 55.4390809,13.4797266 52.6043909,13.4797266 Z M64.2512575,18.0213479 C63.032019,17.8160391 62.1203537,17.6294484 62.1203537,16.8874203 C62.1203537,16.184799 62.7621518,15.8738802 64.2927146,15.8738802 C65.12186,15.8738802 66.2716083,16.0175176 67.094831,16.1544559 C67.1895906,16.1702185 67.2764535,16.0994835 67.2804016,16.0037253 L67.370818,13.8245352 C67.3741741,13.7447366 67.3181082,13.6743956 67.2391418,13.6608003 C66.2455493,13.4915486 65.0101228,13.3969725 63.9624384,13.3969725 C61.1070198,13.3969725 59.1421428,14.3462798 59.1421428,17.0511552 C59.1421428,19.5093447 61.0239079,20.0878349 62.5961254,20.3758978 C63.9209811,20.6038656 64.9966985,20.7677974 64.9966985,21.5533698 C64.9966985,22.3160864 64.4172838,22.7513333 63.0112902,22.7513333 C62.0848191,22.7513333 60.6168368,22.5824756 59.4084563,22.4055395 C59.3119202,22.3913531 59.2252547,22.4658318 59.2252547,22.5631663 L59.2252547,24.8211698 C59.2252547,24.9015595 59.2848743,24.969142 59.36463,24.9793877 C60.4085636,25.1127793 62.0283582,25.2075524 63.1548114,25.2075524 C66.280097,25.2075524 67.9768838,23.9889005 67.9768838,21.4288447 C67.9768838,18.7653463 65.9687727,18.3320697 64.2512575,18.0213479 Z M74.635217,18.0213479 C73.4159785,17.8160391 72.5045109,17.6294484 72.5045109,16.8874203 C72.5045109,16.184799 73.1461116,15.8738802 74.6766744,15.8738802 C75.5058198,15.8738802 76.6555679,16.0175176 77.4787908,16.1544559 C77.5735502,16.1702185 77.6604131,16.0994835 77.6643614,16.0037253 L77.7547778,13.8245352 C77.7581339,13.7447366 77.7020678,13.6743956 77.6231016,13.6608003 C76.6310885,13.4915486 75.3940824,13.3969725 74.346398,13.3969725 C71.4909796,13.3969725 69.5261024,14.3462798 69.5261024,17.0511552 C69.5261024,19.5093447 71.4078675,20.0878349 72.980085,20.3758978 C74.3049409,20.6038656 75.3806581,20.7677974 75.3806581,21.5533698 C75.3806581,22.3160864 74.8012436,22.7513333 73.39525,22.7513333 C72.4687786,22.7513333 71.0005993,22.5824756 69.7924161,22.4055395 C69.6958798,22.3913531 69.6092145,22.4658318 69.6092145,22.5631663 L69.6092145,24.8211698 C69.6092145,24.9015595 69.6688338,24.969142 69.7485898,24.9793877 C70.7925231,25.1127793 72.4123178,25.2075524 73.5385736,25.2075524 C76.6640568,25.2075524 78.3588693,23.9889005 78.3588693,21.4288447 C78.3588693,18.7653463 76.3527325,18.3320697 74.635217,18.0213479 Z M84.7953076,22.8133881 C84.2366214,22.8133881 83.5740948,22.730437 82.891037,22.5440434 L82.891037,17.07203 C83.8441593,16.4107857 84.7538503,16.0397717 85.5200202,16.0397717 C86.7185299,16.0397717 87.5678116,16.9494752 87.5678116,19.2193007 C87.5678116,21.6154246 86.6788495,22.8133881 84.7953076,22.8133881 Z M86.4713655,13.4797159 C85.2916103,13.4797159 84.0498663,13.9543695 82.891037,14.8209227 C82.891037,14.204996 82.3907859,13.7057133 81.773665,13.7057133 L80.134721,13.7057133 C80.0464763,13.7057133 79.9750118,13.7772364 79.9750118,13.8651133 L79.9750118,27.6078034 C79.9750118,28.441649 80.6521472,29.1174738 81.4876099,29.1174738 L82.7313278,29.1174738 C82.8193751,29.1174738 82.891037,29.0461477 82.891037,28.9580737 L82.891037,24.9192818 C83.6572069,25.1039021 84.4650312,25.2075417 85.187967,25.2075417 C88.2303382,25.2075417 90.5460227,23.5142361 90.5460227,19.0553688 C90.5460227,15.15253 88.643529,13.4797159 86.4713655,13.4797159 Z M98.0655815,22.7304477 C96.1009017,22.7304477 95.2723487,21.4909102 95.2723487,19.3020654 C95.2723487,17.1341063 96.1009017,15.8945687 98.0655815,15.8945687 C100.030261,15.8945687 100.838085,17.1341063 100.838085,19.3020654 C100.838085,21.4909102 100.030261,22.7304477 98.0655815,22.7304477 Z M98.0448527,13.3967755 C94.8175032,13.3967755 92.2941376,15.1939177 92.2941376,19.3020654 C92.2941376,23.4310987 94.8175032,25.2075524 98.0448527,25.2075524 C101.292931,25.2075524 103.816297,23.3708065 103.816297,19.3020654 C103.816297,15.2352948 101.292931,13.3967755 98.0448527,13.3967755 Z M108.430194,15.5111157 L108.430194,14.7878058 C108.430194,14.1718792 107.929943,13.6725964 107.312822,13.6725964 L105.819374,13.6725964 C105.731129,13.6725964 105.659664,13.7439225 105.659664,13.8319965 L105.659664,23.4801341 C105.659664,24.3139798 106.3368,24.9898045 107.172065,24.9898045 L108.415783,24.9898045 C108.504028,24.9898045 108.575492,24.9184784 108.575492,24.8304044 L108.575492,17.8656655 C109.979512,17.3054994 111.109123,16.8619771 112.477213,16.6277043 C112.554008,16.6145031 112.610666,16.5484969 112.610666,16.4708657 L112.610666,13.7809648 C112.610666,13.687768 112.530713,13.6148656 112.437335,13.6217618 C110.787731,13.7443166 109.570269,14.7720431 108.430194,15.5111157 Z M114.482403,22.4819885 C114.482403,24.7328988 115.82621,25.2075524 117.296364,25.2075524 C118.164005,25.2075524 119.333495,25.0757371 120.22917,24.9035298 C120.30399,24.8889493 120.357687,24.8231402 120.357687,24.7470852 L120.357687,22.6037552 C120.357687,22.5003126 120.260953,22.4244548 120.160272,22.4490839 C119.727537,22.5546939 119.235774,22.6476937 118.806396,22.6476937 C118.060757,22.6476937 117.398428,22.3783489 117.398428,21.4497302 L117.398428,16.143422 L120.217917,16.143422 C120.306162,16.143422 120.377626,16.0720959 120.377626,15.9840219 L120.377626,13.8239441 C120.377626,13.7358701 120.306162,13.664544 120.217917,13.664544 L117.377699,13.664544 L117.377699,12.2610746 C117.377699,11.645148 116.877448,11.1458652 116.260327,11.1458652 L114.638361,11.1458652 C114.550116,11.1458652 114.478652,11.2173884 114.478652,11.3054623 L114.482403,22.4819885 Z" id="Passport/-Wordmark/" fill="#FFFFFF"></path>
                        <g id="Passport/-Logo/-White" transform="translate(0.007057, 0.002405)">
                            <path d="M10.0731769,10.3068848 L0.245687242,10.3068848 C0.128985802,10.3068848 0,10.1780487 0,10.0614827 L0,0.245402018 C0,0.12883606 0.128985802,-2.62490399e-14 0.245687242,-2.62490399e-14 L10.0731769,-2.62490399e-14 C10.1898784,-2.62490399e-14 10.3188642,0.12883606 10.3188642,0.245402018 L10.3188642,10.0614827 C10.3188642,10.1780487 10.1898784,10.3068848 10.0731769,10.3068848 Z M10.0731769,14.2333171 C10.1898748,14.2333171 10.3188642,14.3621807 10.3188642,14.4787715 L10.3188642,34.6016323 C10.3188642,34.7182232 10.1898748,34.8470867 10.0731769,34.8470867 L5.15943209,34.8470867 C2.31034321,34.8470867 0,32.5418608 0,29.6925442 L0,14.4787715 C0,14.3621807 0.128702742,14.2333171 0.245687242,14.2333171 C2.43646822,14.2333171 4.07955395,14.2333171 5.17494444,14.2333171 C6.26344055,14.2333171 7.89618471,14.2333171 10.0731769,14.2333171 Z M14.4955473,20.6137696 C14.3788494,20.6137696 14.24986,20.484906 14.24986,20.3683152 L14.24986,0.245454407 C14.24986,0.12886351 14.3788494,-2.62490399e-14 14.4955473,-2.62490399e-14 L19.4092921,-2.62490399e-14 C22.258381,-2.62490399e-14 24.5687242,2.30522592 24.5687242,5.15454254 L24.5687242,20.3683152 C24.5687242,20.484906 24.4400215,20.6137696 24.323037,20.6137696 C22.132256,20.6137696 20.4891703,20.6137696 19.3937798,20.6137696 C18.3052837,20.6137696 16.6725395,20.6137696 14.4955473,20.6137696 Z M25.8831514,1.23191732 C25.8831514,1.11881794 25.8977255,1.00991944 25.926874,0.905218533 C25.9560225,0.800517625 25.9972222,0.702536963 26.0504744,0.611273607 C26.1037265,0.520010251 26.1679083,0.437146606 26.2430219,0.362680188 C26.3181354,0.288213768 26.4010953,0.22410642 26.4919042,0.170356223 C26.5827131,0.116606025 26.6802471,0.075174203 26.7845091,0.0460595126 C26.8887712,0.0169448221 26.997516,0.00238769532 27.1107468,0.00238769532 C27.2239777,0.00238769532 27.3330027,0.0169448221 27.4378253,0.0460595126 C27.5426479,0.075174203 27.6404622,0.116606025 27.7312711,0.170356223 C27.82208,0.22410642 27.9050399,0.288213768 27.9801534,0.362680188 C28.0552669,0.437146606 28.1194488,0.520010251 28.1727009,0.611273607 C28.225953,0.702536963 28.2671527,0.800517625 28.2963013,0.905218533 C28.3254498,1.00991944 28.3400239,1.11881794 28.3400239,1.23191732 C28.3400239,1.3438969 28.3254498,1.45223551 28.2963013,1.55693642 C28.2671527,1.66163732 28.225953,1.75933804 28.1727009,1.8500415 C28.1194488,1.94074496 28.0552669,2.02332866 27.9801534,2.09779508 C27.9050399,2.1722615 27.82208,2.23636884 27.7312711,2.29011904 C27.6404622,2.34386924 27.5426479,2.38530106 27.4378253,2.41441575 C27.3330027,2.44353044 27.2239777,2.45808757 27.1107468,2.45808757 C26.997516,2.45808757 26.8887712,2.44353044 26.7845091,2.41441575 C26.6802471,2.38530106 26.5827131,2.34386924 26.4919042,2.29011904 C26.4010953,2.23636884 26.3181354,2.1722615 26.2430219,2.09779508 C26.1679083,2.02332866 26.1037265,1.94074496 26.0504744,1.8500415 C25.9972222,1.75933804 25.9560225,1.66191727 25.926874,1.55777626 C25.8977255,1.45363525 25.8831514,1.34501669 25.8831514,1.23191732 Z M26.0513152,1.23191732 C26.0513152,1.33157914 26.0636471,1.42732025 26.0883112,1.5191435 C26.1129754,1.61096675 26.1482894,1.69690979 26.1942544,1.77697519 C26.2402194,1.85704059 26.2951523,1.92954628 26.3590549,1.99449443 C26.4229574,2.05944259 26.494146,2.1151516 26.5726228,2.16162312 C26.6510996,2.20809464 26.7357412,2.24392757 26.8265501,2.26912298 C26.917359,2.29431838 27.0120903,2.3069159 27.1107468,2.3069159 C27.2587317,2.3069159 27.3974654,2.27892142 27.5269521,2.22293163 C27.6564389,2.16694184 27.7691074,2.09051693 27.8649613,1.99365459 C27.9608151,1.89679226 28.036488,1.78313469 28.0919823,1.65267848 C28.1474766,1.52222227 28.1752234,1.38196995 28.1752234,1.23191732 C28.1752234,1.13225549 28.1626112,1.0359545 28.1373865,0.94301145 C28.1121618,0.850068401 28.0765675,0.763565473 28.0306026,0.683500073 C27.9846376,0.603434678 27.9294243,0.530369098 27.8649613,0.464301146 C27.8004982,0.398233194 27.7290293,0.341964301 27.6505525,0.295492776 C27.5720757,0.249021251 27.4871538,0.212908379 27.3957844,0.187153076 C27.304415,0.161397773 27.2094034,0.148520314 27.1107468,0.148520314 C26.962762,0.148520314 26.8243085,0.176794734 26.6953824,0.233344421 C26.5664562,0.289894108 26.4543481,0.367158859 26.3590549,0.465140989 C26.2637616,0.563123119 26.1886492,0.677900466 26.1337154,0.809476471 C26.0787817,0.941052476 26.0513152,1.08186468 26.0513152,1.23191732 Z M26.868591,1.38308899 L26.868591,1.97769758 L26.6062556,1.97769758 L26.6062556,0.479418314 L27.0905672,0.479418314 C27.2833959,0.479418314 27.4263337,0.514411407 27.5193847,0.584398643 C27.6124358,0.654385879 27.6589607,0.757685493 27.6589607,0.894300576 C27.6589607,0.999561379 27.6289718,1.0891437 27.5689931,1.16305022 C27.5090143,1.23695674 27.4196082,1.28790669 27.3007719,1.31590158 C27.3198305,1.32709954 27.3363665,1.34109678 27.3503802,1.35789371 C27.3643939,1.37469065 27.3775666,1.39428678 27.3898987,1.4166827 L27.773312,1.97769758 L27.5244297,1.97769758 C27.4874334,1.97769758 27.459967,1.96370034 27.4420294,1.93570545 L27.1040203,1.4284405 C27.0939304,1.41388315 27.0818788,1.40268536 27.0678651,1.39484679 C27.0538514,1.38700822 27.0322706,1.38308899 27.003122,1.38308899 L26.868591,1.38308899 Z M26.868591,1.19160487 L27.063661,1.19160487 C27.1253213,1.19160487 27.1777318,1.18572603 27.2208941,1.17396818 C27.2640563,1.16221032 27.2988098,1.14513369 27.3251556,1.12273777 C27.3515014,1.10034186 27.3705598,1.07290728 27.3823313,1.0404332 C27.3941028,1.00795912 27.3999885,0.970446523 27.3999885,0.927894282 C27.3999885,0.88646184 27.3946633,0.850069022 27.3840129,0.818714738 C27.3733625,0.787360459 27.3559858,0.761605541 27.3318822,0.741449219 C27.3077786,0.721292892 27.276108,0.706175876 27.2368696,0.696097716 C27.1976312,0.686019553 27.1488642,0.680980548 27.0905672,0.680980548 L26.868591,0.680980548 L26.868591,1.19160487 Z" id="Passport/-Logo" fill="#FFFFFF"></path>
                            <path d="M19.4092921,35.0924887 C16.5598524,35.0924887 14.24986,32.7851781 14.24986,29.9390463 C14.24986,27.0926283 16.5598524,24.7856039 19.4092921,24.7856039 C22.2587318,24.7856039 24.5687242,27.0926283 24.5687242,29.9390463 C24.5687242,32.7851781 22.2587318,35.0924887 19.4092921,35.0924887 Z" id="dot" fill="#FF5757" fill-rule="nonzero"></path>
                        </g>
                    </g>
                </g>
                <path d="M134.90965,25.7691 C136.102375,25.7691 137.75545,25.55985 139.073725,25.05765 L139.073725,22.023525 C137.9647,22.54665 136.5418,22.8396 135.349075,22.8396 C133.214725,22.8396 131.2687,21.688725 131.2687,17.880375 C131.2687,14.406825 132.7753,13.1304 135.5374,13.1304 C136.730125,13.1304 138.25765,13.527975 139.031875,13.8 L139.031875,10.724025 C137.50435,10.305525 136.207,10.2009 134.8678,10.2009 C130.327075,10.2009 127.7533,13.151325 127.7533,17.964075 C127.7533,22.944225 130.13875,25.7691 134.90965,25.7691 Z M146.146375,25.7691 C149.55715,25.7691 152.06815,23.80215 152.06815,19.763625 C152.06815,15.704175 149.55715,13.737225 146.146375,13.737225 C142.7356,13.737225 140.245525,15.662325 140.245525,19.763625 C140.245525,23.864925 142.7356,25.7691 146.146375,25.7691 Z M146.1673,22.9233 C144.36775,22.9233 143.677225,21.814275 143.677225,19.763625 C143.677225,17.712975 144.36775,16.583025 146.1673,16.583025 C147.96685,16.583025 148.63645,17.712975 148.63645,19.763625 C148.63645,21.814275 147.96685,22.9233 146.1673,22.9233 Z M159.2245,25.7691 C162.635275,25.7691 165.146275,23.80215 165.146275,19.763625 C165.146275,15.704175 162.635275,13.737225 159.2245,13.737225 C155.813725,13.737225 153.32365,15.662325 153.32365,19.763625 C153.32365,23.864925 155.813725,25.7691 159.2245,25.7691 Z M159.245425,22.9233 C157.445875,22.9233 156.75535,21.814275 156.75535,19.763625 C156.75535,17.712975 157.445875,16.583025 159.245425,16.583025 C161.044975,16.583025 161.714575,17.712975 161.714575,19.763625 C161.714575,21.814275 161.044975,22.9233 159.245425,22.9233 Z M176.6341,25.6854 C176.989825,25.6854 177.34555,25.664475 177.701275,25.6017 L177.701275,22.567575 C176.571325,22.54665 175.67155,22.190925 175.16935,21.353925 L174.144025,19.638075 C176.17375,18.298875 176.780575,16.206375 176.780575,14.34405 L176.780575,13.988325 L176.780575,13.988325 L173.432575,13.988325 L173.432575,14.4696 C173.432575,16.624875 172.344475,17.587425 171.298225,18.047775 L170.3566,18.466275 L170.3566,9.552225 L167.0086,9.552225 L167.0086,25.518 L170.3566,25.518 L170.3566,21.333 L171.088975,20.9982 L172.177075,22.944225 C173.307025,24.953025 174.83455,25.6854 176.6341,25.6854 Z M183.916,25.7691 C187.326775,25.7691 190.23535,24.30435 190.23535,19.428825 C190.23535,15.285675 188.1847,13.737225 186.029425,13.737225 C184.773925,13.737225 183.685825,14.09295 182.681425,14.637 L182.681425,9.552225 L179.333425,9.552225 L179.333425,25.05765 C180.8191,25.47615 182.4094,25.7691 183.916,25.7691 Z M184.04155,23.027925 C183.62305,23.027925 183.20455,23.007 182.681425,22.902375 L182.681425,17.252625 C183.560275,16.834125 184.29265,16.6458 184.899475,16.6458 C186.21775,16.6458 186.824575,17.6502 186.824575,19.61715 C186.824575,21.939825 186.0922,23.027925 184.04155,23.027925 Z M197.43355,25.7691 C200.844325,25.7691 203.355325,23.80215 203.355325,19.763625 C203.355325,15.704175 200.844325,13.737225 197.43355,13.737225 C194.022775,13.737225 191.5327,15.662325 191.5327,19.763625 C191.5327,23.864925 194.022775,25.7691 197.43355,25.7691 Z M197.454475,22.9233 C195.654925,22.9233 194.9644,21.814275 194.9644,19.763625 C194.9644,17.712975 195.654925,16.583025 197.454475,16.583025 C199.254025,16.583025 199.923625,17.712975 199.923625,19.763625 C199.923625,21.814275 199.254025,22.9233 197.454475,22.9233 Z M210.511675,25.7691 C213.92245,25.7691 216.43345,23.80215 216.43345,19.763625 C216.43345,15.704175 213.92245,13.737225 210.511675,13.737225 C207.1009,13.737225 204.610825,15.662325 204.610825,19.763625 C204.610825,23.864925 207.1009,25.7691 210.511675,25.7691 Z M210.5326,22.9233 C208.73305,22.9233 208.042525,21.814275 208.042525,19.763625 C208.042525,17.712975 208.73305,16.583025 210.5326,16.583025 C212.33215,16.583025 213.00175,17.712975 213.00175,19.763625 C213.00175,21.814275 212.33215,22.9233 210.5326,22.9233 Z M227.921275,25.6854 C228.277,25.6854 228.632725,25.664475 228.98845,25.6017 L228.98845,22.567575 C227.8585,22.54665 226.958725,22.190925 226.456525,21.353925 L225.4312,19.638075 C227.460925,18.298875 228.06775,16.206375 228.06775,14.34405 L228.06775,13.988325 L228.06775,13.988325 L224.71975,13.988325 L224.71975,14.4696 C224.71975,16.624875 223.63165,17.587425 222.5854,18.047775 L221.643775,18.466275 L221.643775,9.552225 L218.295775,9.552225 L218.295775,25.518 L221.643775,25.518 L221.643775,21.333 L222.37615,20.9982 L223.46425,22.944225 C224.5942,24.953025 226.121725,25.6854 227.921275,25.6854 Z" id="Cookbook" fill="#FF5757" fill-rule="nonzero"></path>
            </g>
        </g>
    </g>
</svg>